<svg width="512" height="512" viewBox="0 0 512 512" fill="none" xmlns="http://www.w3.org/2000/svg">
  <!-- Background Shield/Container -->
  <rect x="48" y="48" width="416" height="416" rx="80" fill="url(#paint0_linear)" />
  
  <!-- Subtle Grid Pattern -->
  <path d="M120 48V464M200 48V464M280 48V464M360 48V464" stroke="white" stroke-opacity="0.05" stroke-width="2"/>
  
  <!-- Waterfall Chart Elements (The HAR Data) -->
  <!-- Request 1 -->
  <rect x="120" y="140" width="80" height="24" rx="12" fill="#06B6D4" fill-opacity="0.9" />
  <!-- Request 2 -->
  <rect x="180" y="190" width="140" height="24" rx="12" fill="#22D3EE" fill-opacity="0.8" />
  <!-- Request 3 -->
  <rect x="240" y="240" width="100" height="24" rx="12" fill="#06B6D4" fill-opacity="0.9" />
  <!-- Request 4 -->
  <rect x="300" y="290" width="60" height="24" rx="12" fill="#22D3EE" fill-opacity="0.8" />

  <!-- Magnifying Glass (The Viewer/Inspector) -->
  <g filter="url(#shadow)">
    <!-- Lens -->
    <circle cx="256" cy="240" r="100" stroke="white" stroke-width="28" />
    <!-- Reflection on Lens -->
    <path d="M210 180C220 170 240 165 260 165" stroke="white" stroke-width="8" stroke-linecap="round" stroke-opacity="0.4" />
    <!-- Handle -->
    <path d="M325 310L400 385" stroke="white" stroke-width="32" stroke-linecap="round" />
  </g>

  <!-- Definitions -->
  <defs>
    <linearGradient id="paint0_linear" x1="48" y1="48" x2="464" y2="464" gradientUnits="userSpaceOnUse">
      <stop stop-color="#4F46E5" />
      <stop offset="1" stop-color="#3730A3" />
    </linearGradient>
    
    <filter id="shadow" x="120" y="110" width="320" height="320" filterUnits="userSpaceOnUse" color-interpolation-filters="sRGB">
      <feFlood flood-opacity="0" result="BackgroundImageFix"/>
      <feColorMatrix in="SourceAlpha" type="matrix" values="0 0 0 0 0 0 0 0 0 0 0 0 0 0 0 0 0 0 127 0" result="hardAlpha"/>
      <feOffset dy="10"/>
      <feGaussianBlur stdDeviation="15"/>
      <feComposite in2="hardAlpha" operator="out"/>
      <feColorMatrix type="matrix" values="0 0 0 0 0 0 0 0 0 0 0 0 0 0 0 0 0 0 0.25 0"/>
      <feBlend mode="normal" in2="BackgroundImageFix" result="effect1_dropShadow"/>
      <feBlend mode="normal" in="SourceGraphic" in2="effect1_dropShadow" result="shape"/>
    </filter>
  </defs>
</svg>